<svg width="32" height="31" viewBox="0 0 32 31" fill="none" xmlns="http://www.w3.org/2000/svg">
<path d="M14.8472 17.4341C12.9699 17.1998 9.39135 20.4102 8.00379 23.6089C7.64699 24.4319 6.98352 26.0173 7.48141 27.6061C7.59335 27.9628 8.24515 29.8513 10.5364 30.1859C10.569 30.1905 10.6005 30.1952 10.6332 30.1987C12.2306 30.398 14.4752 29.8501 15.8313 28.3545C17.1745 26.8729 17.2585 24.9075 17.2631 24.1591C17.2631 23.9493 17.2608 23.7465 17.2527 23.5541C17.1815 21.5572 16.7944 19.3109 15.6494 17.8514C15.4103 17.5472 15.183 17.4924 14.9218 17.4446C14.8973 17.4399 14.8728 17.4365 14.8472 17.433" fill="#F64E85"/>
<path d="M8.36083 9.93158C7.49798 9.82433 6.01364 9.72758 4.24945 10.5867C3.81919 10.7965 1.5233 11.9623 0.499534 14.2727C-0.216401 15.8884 -0.267706 17.968 1.04407 18.8749C1.43468 19.1442 1.90809 19.2864 2.40248 19.3482C3.52302 19.4881 4.74501 19.2142 5.32452 19.0708C5.55889 19.0125 5.7851 18.9507 6.00314 18.8901C8.25239 18.2548 10.8736 17.2429 12.829 15.7217C13.2371 15.4046 13.3642 15.1691 13.4902 14.9022C14.388 13.0137 11.7901 10.4002 8.56722 9.96072C8.50309 9.95256 8.43429 9.94324 8.362 9.93391" fill="#F78A4C"/>
<path d="M21.027 0.0393647C19.4295 -0.159972 17.185 0.389079 15.8289 1.88469C14.4845 3.36631 14.4005 5.3317 14.397 6.08009C14.3947 6.28992 14.4005 6.49159 14.4063 6.6851C14.4786 8.6808 14.8658 10.9283 16.0119 12.3878C16.2498 12.692 16.4772 12.748 16.7395 12.7946C16.764 12.7993 16.7897 12.8028 16.8142 12.8063C18.6915 13.0406 22.2688 9.83019 23.6552 6.63264C24.0132 5.80848 24.6766 4.22311 24.1776 2.63541C24.0656 2.2787 23.415 0.389079 21.1249 0.054519C21.0923 0.0498561 21.0608 0.0451933 21.0282 0.0416961" fill="#A0F0FD"/>
<path d="M29.2571 10.891C28.1377 10.7511 26.9145 11.025 26.3362 11.1696C26.103 11.2267 25.8744 11.2897 25.6576 11.3503C23.406 11.9868 20.7871 12.9986 18.8305 14.5198C18.4236 14.8369 18.2976 15.0712 18.1694 15.3393C17.2727 17.2278 19.8706 19.8413 23.0935 20.2796C23.1599 20.289 23.2322 20.2983 23.3092 20.3076C24.1721 20.4149 25.6517 20.507 27.4113 19.6502C27.8415 19.4403 30.1362 18.2758 31.16 15.9653C31.8759 14.3497 31.9284 12.27 30.6166 11.3643C30.226 11.095 29.7515 10.9528 29.2571 10.891Z" fill="#8732F8"/>
<path d="M20.1866 20.6946C20.0444 20.6772 19.9009 20.6667 19.7575 20.6643C19.5325 20.6608 19.4077 20.7191 19.269 20.7926C18.2883 21.3113 17.8336 23.3816 18.4108 24.7129C18.5577 25.0509 18.8515 25.6944 19.6806 25.9578C19.7435 25.9777 19.8986 26.0243 20.1236 26.0523C20.5667 26.1071 21.278 26.0907 22.0627 25.6524C22.8894 25.1908 23.7488 24.2897 23.8106 23.4271C23.8701 22.5889 23.1658 22.0329 22.8848 21.8312C22.8067 21.7741 22.7285 21.7216 22.6527 21.6715C21.9695 21.2262 21.1078 20.8089 20.1866 20.6946Z" fill="#CB4A74"/>
<path d="M7.62855 19.5557C6.76919 19.4485 5.45975 19.7236 4.38002 20.3356C3.96025 20.5734 3.15803 21.0408 2.62866 21.9174C2.50972 22.1144 1.8929 23.1787 2.29401 24.1346C2.51556 24.6615 3.03677 25.1313 3.71072 25.2152C3.89146 25.2374 4.08385 25.2327 4.28441 25.1931C5.20439 25.0136 6.02527 24.1743 6.33077 23.8444C6.41589 23.7523 6.49751 23.6613 6.57447 23.5739C7.37202 22.6658 8.1964 21.5363 8.52172 20.4883C8.58935 20.2703 8.55787 20.1654 8.51589 20.0523C8.41211 19.7749 8.0833 19.6117 7.62855 19.5545" fill="#D4ED77"/>
<path d="M11.5362 4.18579C11.0931 4.131 10.3818 4.14732 9.59595 4.58563C8.76924 5.04726 7.90988 5.94835 7.84925 6.81098C7.78978 7.64913 8.49406 8.20517 8.77507 8.40801C8.85436 8.46513 8.93248 8.51758 9.00827 8.56655C9.69156 9.01185 10.5544 9.42917 11.4756 9.54458C11.6167 9.56206 11.7589 9.57256 11.9023 9.57489C12.1274 9.57838 12.2533 9.51893 12.3921 9.44549C13.3727 8.92792 13.8263 6.85761 13.2491 5.52636C13.1022 5.18831 12.8095 4.54483 11.9793 4.28138C11.9163 4.26156 11.7612 4.21494 11.5374 4.18696" fill="#FFD331"/>
<path d="M27.9491 5.02162C27.7684 4.99947 27.576 5.00413 27.3754 5.04377C26.4566 5.22445 25.6357 6.06377 25.3302 6.3925C25.2439 6.48575 25.1623 6.57551 25.0854 6.66294C24.289 7.56987 23.4646 8.69944 23.1393 9.74859C23.0705 9.96774 23.1008 10.0727 23.1439 10.1857C23.2477 10.4632 23.5777 10.6264 24.0324 10.6835C24.893 10.7907 26.2012 10.5156 27.281 9.90246C27.7007 9.66465 28.5018 9.19837 29.0323 8.32059C29.1513 8.12358 29.7681 7.06045 29.367 6.1034C29.1443 5.5765 28.6242 5.10672 27.9503 5.02278" fill="#66A0D1"/>
</svg>
